<svg width="32" height="32" viewBox="0 0 32 32" fill="none" xmlns="http://www.w3.org/2000/svg">
<path d="M25.0244 8.54021C23.3193 7.77033 21.5155 7.2233 19.6605 6.91357C19.4294 7.31668 19.1595 7.85886 18.9733 8.29019C16.9734 7.99999 14.9918 7.99999 13.0286 8.29019C12.8425 7.85896 12.5665 7.31668 12.3333 6.91357C10.4765 7.22344 8.6711 7.77187 6.96519 8.54423C3.57057 13.4945 2.65031 18.3217 3.11039 23.0805C5.36193 24.7031 7.5439 25.6887 9.6891 26.3337C10.2222 25.6262 10.6935 24.8772 11.0981 24.0943C10.3279 23.8114 9.58533 23.4626 8.87934 23.0523C9.06513 22.9194 9.24654 22.7809 9.42331 22.6371C13.7013 24.568 18.3496 24.568 22.5767 22.6371C22.7542 22.78 22.9356 22.9185 23.1205 23.0523C22.4134 23.4637 21.6695 23.8131 20.8977 24.0964C21.3046 24.8824 21.775 25.6322 22.3067 26.3357C24.4539 25.6908 26.6379 24.7051 28.8895 23.0805C29.4294 17.5639 27.9673 12.781 25.0244 8.54021ZM11.6809 20.1539C10.3967 20.1539 9.34348 18.997 9.34348 17.5881C9.34348 16.1792 10.3742 15.0203 11.6809 15.0203C12.9877 15.0203 14.0408 16.1772 14.0184 17.5881C14.0204 18.997 12.9877 20.1539 11.6809 20.1539ZM20.3189 20.1539C19.0347 20.1539 17.9816 18.997 17.9816 17.5881C17.9816 16.1792 19.0122 15.0203 20.3189 15.0203C21.6257 15.0203 22.6788 16.1772 22.6564 17.5881C22.6564 18.997 21.6257 20.1539 20.3189 20.1539Z" fill="#5865F2"/>
</svg>
