<svg width="165" height="50" viewBox="0 0 165 50" fill="none" xmlns="http://www.w3.org/2000/svg">
<g clip-path="url(#clip0_10776_23398)">
<path d="M11.8808 15.8291C5.2177 16.4268 0 22.0681 0 28.9339C0 36.2079 5.8392 42.097 13.0515 42.097H23.9639C23.9783 42.097 23.9783 42.097 23.9928 42.097C16.7949 42.0824 10.9702 36.1933 10.9702 28.9339V20.6541C10.9702 18.9486 11.2882 17.316 11.8808 15.8291Z" fill="#FF42A5"/>
<path d="M36.1193 15.8291C36.7119 17.3305 37.0299 18.9632 37.0299 20.6687V28.9485C37.0299 36.2079 31.2052 42.097 24.0073 42.1116C24.0218 42.1116 24.0218 42.1116 24.0362 42.1116H34.9486C42.1609 42.1116 48.0001 36.2224 48.0001 28.9485C48.0001 22.0681 42.7824 16.4268 36.1193 15.8291Z" fill="#B3D661"/>
<path d="M23.9637 42.0972C23.9492 42.0972 23.9492 42.0972 23.9348 42.0972C23.9492 42.0972 23.9637 42.0972 23.9637 42.0972C23.9781 42.0972 23.9781 42.0972 23.9926 42.0972C23.9926 42.0972 23.9781 42.0972 23.9637 42.0972ZM23.9637 7.49121C18.4424 7.49121 13.7306 10.946 11.8228 15.8293C12.213 15.8001 12.6032 15.771 12.9935 15.771H23.9059C23.9203 15.771 23.9492 15.771 23.9637 15.771C23.9781 15.771 24.007 15.771 24.0215 15.771H34.9338C35.3241 15.771 35.7288 15.7856 36.1046 15.8293C34.2112 10.946 29.4849 7.49121 23.9637 7.49121Z" fill="#51A5C9"/>
<path d="M23.9207 15.771H12.9939C12.6037 15.771 12.199 15.7856 11.8232 15.8293C11.2306 17.3307 10.9126 18.9634 10.9126 20.6689V28.9487C10.9126 36.2081 16.7373 42.0972 23.9352 42.1118C23.9496 42.1118 23.9496 42.1118 23.9641 42.1118C16.7807 42.0826 10.9704 36.1935 10.9704 28.9487C10.9704 21.6893 16.7807 15.8147 23.9641 15.7856C23.9496 15.771 23.9352 15.771 23.9207 15.771Z" fill="#4C4789"/>
<path d="M34.9487 15.771H24.0363C24.0219 15.771 23.993 15.771 23.9785 15.771C31.1619 15.8002 36.9722 21.6893 36.9722 28.9341C36.9722 36.1935 31.1619 42.068 23.9785 42.0972C23.993 42.0972 23.993 42.0972 24.0074 42.0972C31.2053 42.0826 37.03 36.1935 37.03 28.9341V20.6543C37.03 18.9488 36.712 17.3162 36.1194 15.8147C35.7292 15.7856 35.3389 15.771 34.9487 15.771Z" fill="#398B4D"/>
<path d="M23.9639 15.771C16.7805 15.8002 10.9702 21.6893 10.9702 28.9341C10.9702 36.1935 16.7805 42.068 23.9639 42.0972C31.1473 42.068 36.9576 36.1789 36.9576 28.9341C36.972 21.6893 31.1473 15.8002 23.9639 15.771Z" fill="#0B0223"/>
<path d="M23.9929 42.0972C31.201 42.0972 37.0444 36.2039 37.0444 28.9341C37.0444 21.6643 31.201 15.771 23.9929 15.771C16.7848 15.771 10.9414 21.6643 10.9414 28.9341C10.9414 36.2039 16.7848 42.0972 23.9929 42.0972Z" fill="#0B0223"/>
<path d="M20.7696 28.1469C20.7696 29.313 19.8302 30.2606 18.6739 30.2606C17.5176 30.2606 16.5781 29.313 16.5781 28.1469C16.5781 26.9807 17.5176 26.0332 18.6739 26.0332C19.8302 26.0332 20.7696 26.9807 20.7696 28.1469Z" fill="white"/>
<path d="M31.2196 29.3129H28.0399C27.4762 29.3129 27.0137 28.8464 27.0137 28.2779V28.0301C27.0137 27.4616 27.4762 26.9951 28.0399 26.9951H31.2196C31.7833 26.9951 32.2458 27.4616 32.2458 28.0301V28.2779C32.2458 28.8464 31.7833 29.3129 31.2196 29.3129Z" fill="white"/>
<path d="M20.7984 28.1762C20.7984 29.3423 19.859 30.2899 18.7027 30.2899C17.5464 30.2899 16.6069 29.3423 16.6069 28.1762C16.6069 27.01 17.5464 26.0625 18.7027 26.0625C19.859 26.0625 20.7984 27.01 20.7984 28.1762Z" fill="white"/>
<path d="M31.2338 29.3422H28.054C27.4903 29.3422 27.0278 28.8757 27.0278 28.3072V28.0594C27.0278 27.4909 27.4903 27.0244 28.054 27.0244H31.2338C31.7975 27.0244 32.26 27.4909 32.26 28.0594V28.3072C32.26 28.8757 31.8119 29.3422 31.2338 29.3422Z" fill="white"/>
<path d="M74.7865 19.6637C75.9045 20.7726 76.4635 22.444 76.4635 24.6777V33.1992H70.3042V25.7412C70.3042 24.0347 69.6952 23.1814 68.4772 23.1814C68.1618 23.1691 67.8476 23.2272 67.5575 23.3517C67.2674 23.4761 67.0087 23.6636 66.8002 23.9006C66.3752 24.3846 66.1628 25.1436 66.1628 26.1775V33.1856H60V18.273H65.8594V19.7455C66.4286 19.1747 67.1131 18.7319 67.8671 18.4468C68.6606 18.151 69.5016 18.0031 70.3485 18.0105C72.1892 18.0037 73.6685 18.5548 74.7865 19.6637Z" fill="white"/>
<path d="M79.9674 32.4632C78.7009 31.8428 77.63 30.8851 76.8724 29.6955C76.1199 28.5006 75.7314 27.1125 75.7544 25.7006C75.7319 24.2898 76.1203 22.9029 76.8724 21.7091C77.6315 20.5309 78.703 19.5869 79.9674 18.9822C81.369 18.3354 82.8942 18.0005 84.4378 18.0005C85.9814 18.0005 87.5066 18.3354 88.9082 18.9822C90.1652 19.5871 91.2278 20.5317 91.9759 21.7091C92.7254 22.909 93.1124 24.2997 93.0905 25.7142C93.1107 27.1196 92.7274 28.5013 91.9861 29.6955C91.2378 30.8794 90.1759 31.8327 88.9184 32.4496C87.5193 33.1052 85.9931 33.445 84.448 33.445C82.9029 33.445 81.3767 33.1052 79.9776 32.4496L79.9674 32.4632ZM86.1677 27.8821C86.6538 27.2679 86.8966 26.4961 86.8494 25.7142C86.8985 24.9373 86.6553 24.1701 86.1677 23.5634C85.9444 23.3239 85.6742 23.1329 85.374 23.0024C85.0738 22.8718 84.7499 22.8044 84.4225 22.8044C84.095 22.8044 83.7711 22.8718 83.4709 23.0024C83.1707 23.1329 82.9005 23.3239 82.6772 23.5634C82.1896 24.1701 81.9464 24.9373 81.9955 25.7142C81.9483 26.4961 82.1911 27.2679 82.6772 27.8821C82.8975 28.1266 83.1666 28.3222 83.4673 28.456C83.7679 28.5899 84.0934 28.659 84.4225 28.659C84.7515 28.659 85.077 28.5899 85.3776 28.456C85.6783 28.3222 85.9474 28.1266 86.1677 27.8821Z" fill="white"/>
<path d="M117.408 18.2729V26.5047C117.408 28.7249 116.735 30.4382 115.39 31.6449C114.044 32.8515 112.163 33.4514 109.745 33.4446C108.813 33.4564 107.885 33.323 106.994 33.0492C106.188 32.7945 105.458 32.345 104.867 31.7403C104.273 32.3429 103.544 32.7961 102.74 33.0629C101.849 33.3348 100.921 33.4636 99.9897 33.4446C97.5514 33.4446 95.6653 32.8447 94.3314 31.6449C92.9975 30.4451 92.3294 28.7271 92.3271 26.4911V18.2729H98.4899V26.0957C98.4899 27.7318 99.0341 28.5499 100.123 28.5499C101.211 28.5499 101.766 27.7318 101.786 26.0957V18.2729H107.949V26.0957C107.949 27.7318 108.502 28.5499 109.609 28.5499C109.846 28.5701 110.085 28.5294 110.302 28.4316C110.519 28.3338 110.707 28.182 110.849 27.9909C111.115 27.6091 111.245 26.9683 111.245 26.1093V18.2729H117.408Z" fill="white"/>
<path d="M119.852 32.4834C119.63 32.2661 119.456 32.0059 119.338 31.7187C119.221 31.4315 119.164 31.1233 119.17 30.8132C119.16 30.5046 119.216 30.1975 119.334 29.9119C119.451 29.6264 119.628 29.369 119.852 29.1566C120.303 28.7485 120.89 28.5225 121.498 28.5225C122.107 28.5225 122.693 28.7485 123.144 29.1566C123.369 29.3685 123.546 29.6258 123.664 29.9114C123.781 30.1971 123.837 30.5045 123.826 30.8132C123.833 31.1234 123.776 31.4318 123.659 31.7191C123.542 32.0065 123.367 32.2666 123.144 32.4834C122.704 32.9119 122.113 33.1517 121.498 33.1517C120.883 33.1517 120.293 32.9119 119.852 32.4834Z" fill="#FF42A5"/>
<path d="M139.41 18.1913V28.8773C139.41 31.2406 138.798 32.9903 137.573 34.1265C136.348 35.2627 134.56 35.8308 132.208 35.8308C131.016 35.841 129.828 35.6919 128.676 35.3877C127.676 35.1405 126.736 34.6942 125.912 34.0754L127.391 31.3996C128 31.8795 128.694 32.2393 129.436 32.4597C130.238 32.7185 131.075 32.8519 131.918 32.8551C133.206 32.8551 134.157 32.562 134.767 31.9825C135.378 31.403 135.698 30.5304 135.698 29.3545V28.8057C134.725 29.8737 133.373 30.4066 131.642 30.4043C130.517 30.4167 129.407 30.1496 128.41 29.6272C127.45 29.1274 126.646 28.3726 126.086 27.4457C125.502 26.4668 125.204 25.3437 125.227 24.2041C125.204 23.0633 125.501 21.939 126.086 20.9591C126.645 20.0369 127.447 19.2858 128.404 18.7878C129.4 18.2654 130.51 17.9983 131.635 18.0107C133.496 18.0107 134.912 18.6231 135.882 19.8479V18.1913H139.41ZM134.795 26.481C135.107 26.1921 135.353 25.839 135.516 25.446C135.679 25.0529 135.755 24.6293 135.739 24.2041C135.755 23.7784 135.679 23.3542 135.516 22.9606C135.353 22.567 135.107 22.2133 134.795 21.9237C134.131 21.331 133.264 21.0194 132.375 21.0545C131.482 21.0212 130.611 21.3324 129.941 21.9237C129.626 22.2122 129.378 22.5655 129.214 22.9592C129.049 23.3529 128.971 23.7776 128.987 24.2041C128.971 24.6301 129.049 25.0543 129.214 25.4474C129.378 25.8405 129.627 26.1932 129.941 26.481C130.611 27.0724 131.482 27.3836 132.375 27.3502C133.264 27.3854 134.131 27.0737 134.795 26.481Z" fill="#FF42A5"/>
<path d="M154.677 18.1913V28.8772C154.677 31.2292 154.065 32.9778 152.84 34.1231C151.615 35.2684 149.825 35.8365 147.471 35.8274C146.28 35.8342 145.094 35.6817 143.943 35.374C142.942 35.1268 142.001 34.6805 141.176 34.0617L142.655 31.3996C143.263 31.8798 143.957 32.2395 144.7 32.4597C145.501 32.7187 146.337 32.8521 147.178 32.8551C148.467 32.8551 149.418 32.5619 150.031 31.9825C150.645 31.403 150.948 30.5236 150.948 29.3476V28.8057C149.978 29.8737 148.626 30.4066 146.892 30.4043C145.767 30.4166 144.657 30.1496 143.66 29.6271C142.7 29.1273 141.896 28.3726 141.336 27.4456C140.749 26.4675 140.449 25.3443 140.47 24.2041C140.447 23.0633 140.745 21.939 141.329 20.9591C141.889 20.0322 142.693 19.2774 143.654 18.7776C144.65 18.2551 145.76 17.9881 146.885 18.0004C148.746 18.0004 150.162 18.6128 151.132 19.8376V18.1913H154.677ZM150.062 26.481C150.373 26.1915 150.618 25.8382 150.781 25.4452C150.943 25.0523 151.019 24.6289 151.003 24.2041C151.019 23.7787 150.943 23.3549 150.781 22.9614C150.618 22.5679 150.373 22.214 150.062 21.9237C149.378 21.362 148.52 21.055 147.635 21.055C146.75 21.055 145.892 21.362 145.208 21.9237C144.893 22.2116 144.644 22.5648 144.479 22.9586C144.314 23.3524 144.237 23.7774 144.254 24.2041C144.237 24.6302 144.315 25.0547 144.479 25.4479C144.644 25.8412 144.893 26.1937 145.208 26.481C145.892 27.0427 146.75 27.3497 147.635 27.3497C148.52 27.3497 149.378 27.0427 150.062 26.481Z" fill="#FF42A5"/>
</g>
<defs>
<clipPath id="clip0_10776_23398">
<rect width="164.816" height="49" fill="white" transform="translate(0 0.5)"/>
</clipPath>
</defs>
</svg>
