  <svg width="15" height="15" viewBox="0 0 15 15" fill="none" xmlns="http://www.w3.org/2000/svg">
    <path d="M7.09638 1.39913C7.29613 1.12595 7.70387 1.12595 7.90362 1.39913L9.82199 4.02281C10.0071 4.27601 10.267 4.4648 10.565 4.56263L13.6531 5.57636C13.9746 5.68191 14.1006 6.0697 13.9025 6.34408L12.0001 8.97933C11.8165 9.23365 11.7172 9.53912 11.7163 9.85278L11.7064 13.103C11.7054 13.4414 11.3755 13.6811 11.0534 13.5775L7.9592 12.5825C7.6606 12.4864 7.3394 12.4864 7.0408 12.5825L3.94664 13.5775C3.62447 13.6811 3.2946 13.4414 3.29357 13.103L3.28373 9.85278C3.28278 9.53912 3.18353 9.23364 2.99993 8.97933L1.09748 6.34408C0.899392 6.0697 1.02539 5.68191 1.34692 5.57636L4.435 4.56263C4.73302 4.4648 4.99287 4.27601 5.17801 4.02281L7.09638 1.39913Z" fill="#FFC32A" stroke="#FFC32A" />
  </svg>
