<svg width="32" height="32" viewBox="0 0 32 32" fill="none" xmlns="http://www.w3.org/2000/svg">
<path d="M20.4122 12.9122C21.748 13.9234 23.3845 14.5184 25.152 14.5184V10.9168C24.8175 10.9169 24.4839 10.8799 24.1566 10.8065V13.6415C22.3893 13.6415 20.753 13.0466 19.4168 12.0354V19.3853C19.4168 23.0622 16.6021 26.0426 13.1302 26.0426C11.8348 26.0426 10.6307 25.6278 9.63046 24.9165C10.7721 26.1527 12.3641 26.9194 14.1253 26.9194C17.5975 26.9194 20.4123 23.939 20.4123 20.262V12.9122H20.4122ZM21.6402 9.27863C20.9574 8.48882 20.5091 7.46813 20.4122 6.33968V5.87646H19.4689C19.7063 7.31067 20.5163 8.53595 21.6402 9.27863ZM11.8264 22.0951C11.445 21.5656 11.2388 20.9176 11.2397 20.2515C11.2397 18.5699 12.5272 17.2064 14.1155 17.2064C14.4115 17.2062 14.7057 17.2544 14.9879 17.3491V13.6669C14.6582 13.6191 14.3255 13.5987 13.9929 13.6062V16.4722C13.7106 16.3774 13.4162 16.3293 13.1201 16.3296C11.5318 16.3296 10.2445 17.693 10.2445 19.3748C10.2445 20.564 10.8879 21.5936 11.8264 22.0951Z" fill="#FF004F"/>
<path d="M19.4148 12.0353C20.751 13.0465 22.3871 13.6414 24.1545 13.6414V10.8064C23.168 10.5839 22.2947 10.038 21.638 9.27863C20.5141 8.53588 19.7043 7.31059 19.4668 5.87646H16.9892V20.2619C16.9835 21.9389 15.6983 23.2968 14.1134 23.2968C13.1795 23.2968 12.3497 22.8254 11.8242 22.095C10.8859 21.5936 10.2423 20.5639 10.2423 19.3749C10.2423 17.6932 11.5297 16.3297 13.118 16.3297C13.4223 16.3297 13.7156 16.3798 13.9908 16.4723V13.6063C10.5798 13.6809 7.8367 16.6322 7.8367 20.262C7.8367 22.0739 8.51979 23.7165 9.62849 24.9167C10.6287 25.6278 11.8327 26.0427 13.1282 26.0427C16.6002 26.0427 19.4148 23.0621 19.4148 19.3853V12.0354L19.4148 12.0353Z" fill="white"/>
<path d="M24.1556 10.8067V10.0403C23.2659 10.0417 22.3939 9.77788 21.6391 9.27896C22.3072 10.0535 23.187 10.5877 24.1556 10.8068V10.8067ZM19.4678 5.87672C19.4452 5.73969 19.4278 5.60174 19.4157 5.46321V5H15.9946V19.3856C15.9892 21.0625 14.704 22.4204 13.119 22.4204C12.6696 22.4211 12.2264 22.3098 11.8252 22.0955C12.3506 22.8258 13.1804 23.2971 14.1143 23.2971C15.6992 23.2971 16.9845 21.9394 16.9901 20.2623V5.8768H19.4678V5.87672ZM13.9919 13.6066V12.7905C13.7061 12.7491 13.4179 12.7284 13.1293 12.7286C9.65704 12.7286 6.84238 15.7091 6.84238 19.3856C6.84238 21.6906 7.94858 23.722 9.62958 24.9169C8.52088 23.7167 7.83779 22.0741 7.83779 20.2622C7.83779 16.6326 10.5809 13.6812 13.9919 13.6066Z" fill="#00F2EA"/>
</svg>
