<svg width="104" height="89" viewBox="0 0 104 89" fill="none" xmlns="http://www.w3.org/2000/svg">
<g clip-path="url(#clip0_1692_13298)">
<path d="M35.2964 12.3411C26.157 13.1609 19 20.8989 19 30.3165C19 40.2939 27.0094 48.3719 36.9023 48.3719H51.8704C51.8903 48.3719 51.8903 48.3719 51.9101 48.3719C42.0371 48.3519 34.0474 40.2739 34.0474 30.3165V18.9594C34.0474 16.62 34.4836 14.3805 35.2964 12.3411Z" fill="#FF42A5"/>
<path d="M68.5436 12.3411C69.3564 14.4005 69.7926 16.64 69.7926 18.9794V30.3365C69.7926 40.2939 61.803 48.3719 51.9299 48.3919C51.9498 48.3919 51.9498 48.3919 51.9696 48.3919H66.9377C76.8306 48.3919 84.84 40.3139 84.84 30.3365C84.84 20.8989 77.6831 13.1608 68.5436 12.3411Z" fill="#B3D661"/>
<path d="M51.8705 48.3719C51.8506 48.3719 51.8506 48.3719 51.8308 48.3719C51.8506 48.3719 51.8705 48.3719 51.8705 48.3719C51.8903 48.3719 51.8903 48.3719 51.9101 48.3719C51.9101 48.3719 51.8903 48.3719 51.8705 48.3719ZM51.8705 0.90398C44.2972 0.90398 37.8341 5.64277 35.2172 12.3411C35.7524 12.3011 36.2877 12.2611 36.823 12.2611H51.7912C51.811 12.2611 51.8506 12.2611 51.8705 12.2611C51.8903 12.2611 51.9299 12.2611 51.9498 12.2611H66.9179C67.4532 12.2611 68.0083 12.2811 68.5238 12.3411C65.9266 5.64277 59.4437 0.90398 51.8705 0.90398Z" fill="#51A5C9"/>
<path d="M51.811 12.2611H36.823C36.2877 12.2611 35.7326 12.2811 35.2171 12.3411C34.4043 14.4005 33.9681 16.64 33.9681 18.9794V30.3365C33.9681 40.2939 41.9578 48.3719 51.8308 48.3919C51.8506 48.3919 51.8506 48.3919 51.8704 48.3919C42.0172 48.3519 34.0474 40.2739 34.0474 30.3365C34.0474 20.379 42.0172 12.3211 51.8704 12.2811C51.8506 12.2611 51.8308 12.2611 51.811 12.2611Z" fill="#4C4789"/>
<path d="M66.9377 12.2611H51.9696C51.9497 12.2611 51.9101 12.2611 51.8903 12.2611C61.7435 12.3011 69.7132 20.379 69.7132 30.3165C69.7132 40.2739 61.7435 48.3319 51.8903 48.3719C51.9101 48.3719 51.9101 48.3719 51.9299 48.3719C61.8029 48.3519 69.7925 40.2739 69.7925 30.3165V18.9594C69.7925 16.62 69.3564 14.3805 68.5435 12.3211C68.0083 12.2811 67.473 12.2611 66.9377 12.2611Z" fill="#398B4D"/>
<path d="M51.8705 12.2611C42.0173 12.3011 34.0475 20.379 34.0475 30.3165C34.0475 40.2739 42.0173 48.3319 51.8705 48.3719C61.7237 48.3319 69.6935 40.2539 69.6935 30.3165C69.7133 20.379 61.7237 12.3011 51.8705 12.2611Z" fill="#0B0223"/>
<path d="M51.9101 48.3719C61.7973 48.3719 69.8124 40.2882 69.8124 30.3165C69.8124 20.3448 61.7973 12.2611 51.9101 12.2611C42.0229 12.2611 34.0078 20.3448 34.0078 30.3165C34.0078 40.2882 42.0229 48.3719 51.9101 48.3719Z" fill="#0B0223"/>
<path d="M47.4891 29.2368C47.4891 30.8364 46.2004 32.136 44.6144 32.136C43.0284 32.136 41.7397 30.8364 41.7397 29.2368C41.7397 27.6372 43.0284 26.3375 44.6144 26.3375C46.2004 26.3375 47.4891 27.6372 47.4891 29.2368Z" fill="white"/>
<path d="M61.8228 30.8364H57.4612C56.688 30.8364 56.0536 30.1965 56.0536 29.4167V29.0768C56.0536 28.297 56.688 27.6572 57.4612 27.6572H61.8228C62.596 27.6572 63.2304 28.297 63.2304 29.0768V29.4167C63.2304 30.1965 62.596 30.8364 61.8228 30.8364Z" fill="white"/>
<path d="M47.5286 29.2767C47.5286 30.8763 46.24 32.176 44.654 32.176C43.0679 32.176 41.7793 30.8763 41.7793 29.2767C41.7793 27.6771 43.0679 26.3775 44.654 26.3775C46.24 26.3775 47.5286 27.6771 47.5286 29.2767Z" fill="white"/>
<path d="M61.8425 30.8764H57.481C56.7078 30.8764 56.0734 30.2365 56.0734 29.4567V29.1168C56.0734 28.337 56.7078 27.6972 57.481 27.6972H61.8425C62.6157 27.6972 63.2501 28.337 63.2501 29.1168V29.4567C63.2501 30.2365 62.6356 30.8764 61.8425 30.8764Z" fill="white"/>
<path d="M16.9486 58.2228C18.1567 59.4257 18.7617 61.2354 18.7639 63.6519V72.8846H12.0835V64.8048C12.0835 62.9525 11.4242 62.0253 10.1056 62.0232C9.76339 62.0118 9.42291 62.0764 9.10854 62.2122C8.79417 62.348 8.51368 62.5517 8.28717 62.8088C7.8214 63.3325 7.5917 64.1533 7.5917 65.2806V72.8846H0.911377V56.7154H7.2663V58.3122C7.88422 57.6821 8.63072 57.193 9.45479 56.8782C10.3146 56.5566 11.2263 56.3964 12.1442 56.4056C14.1349 56.4141 15.7363 57.0198 16.9486 58.2228Z" fill="white"/>
<path d="M22.5634 72.115C21.1907 71.4474 20.0292 70.4129 19.2073 69.1257C18.4143 67.8196 17.995 66.3205 17.995 64.792C17.995 63.2636 18.4143 61.7645 19.2073 60.4583C20.0281 59.1733 21.1902 58.1427 22.5634 57.4818C24.0698 56.7555 25.7248 56.3913 27.3966 56.4184C29.0778 56.3893 30.7426 56.7535 32.2585 57.4818C33.6289 58.1404 34.7864 59.1719 35.5986 60.4583C36.3814 61.768 36.7948 63.2657 36.7948 64.792C36.7948 66.3183 36.3814 67.816 35.5986 69.1257C34.7852 70.4143 33.6283 71.4496 32.2585 72.115C30.7459 72.8546 29.0797 73.2246 27.3966 73.1944C25.7229 73.2225 24.0664 72.8525 22.5634 72.115ZM29.2884 67.1457C29.7818 66.5836 30.0285 65.7991 30.0285 64.792C30.0285 63.785 29.7818 63.0057 29.2884 62.4543C29.047 62.1933 28.7544 61.985 28.4289 61.8426C28.1033 61.7001 27.7518 61.6266 27.3966 61.6266C27.0413 61.6266 26.6898 61.7001 26.3643 61.8426C26.0387 61.985 25.7461 62.1933 25.5048 62.4543C25.0092 63.0057 24.7625 63.785 24.7646 64.792C24.7668 65.7991 25.0135 66.5836 25.5048 67.1457C25.744 67.4102 26.036 67.6216 26.3618 67.7663C26.6876 67.9109 27.0401 67.9857 27.3966 67.9857C27.753 67.9857 28.1055 67.9109 28.4313 67.7663C28.7572 67.6216 29.0491 67.4102 29.2884 67.1457Z" fill="white"/>
<path d="M63.1654 56.7154V65.6575C63.1654 68.0655 62.4359 69.9242 60.9769 71.2336C59.5179 72.5429 57.4783 73.1987 54.8581 73.2008C53.8465 73.2154 52.8389 73.071 51.872 72.7729C50.9964 72.4955 50.2044 72.0025 49.5687 71.3389C48.9238 71.9926 48.1333 72.484 47.2621 72.7729C46.2956 73.0723 45.2878 73.2167 44.2761 73.2008C41.6346 73.2008 39.5897 72.5504 38.1413 71.2495C36.6929 69.9487 35.9688 68.0847 35.9688 65.6575V56.7154H42.6491V65.2072C42.6491 66.9829 43.2403 67.8707 44.4228 67.8707C45.6053 67.8707 46.2062 66.9829 46.2253 65.2072V56.7154H52.9088V65.2072C52.9088 66.9829 53.5097 67.8707 54.7113 67.8707C54.9697 67.8905 55.2288 67.8437 55.464 67.7346C55.6991 67.6256 55.9024 67.458 56.0544 67.2479C56.3415 66.8221 56.4851 66.1419 56.4851 65.2072V56.7154H63.1654Z" fill="white"/>
<path d="M65.8164 72.3832C65.5786 72.1462 65.3917 71.863 65.2672 71.5511C65.1427 71.2392 65.0831 70.905 65.0922 70.5692C65.0793 70.2354 65.1371 69.9025 65.262 69.5926C65.3868 69.2827 65.5757 69.0028 65.8164 68.7712C66.3062 68.3296 66.9421 68.0852 67.6013 68.0852C68.2606 68.0852 68.8964 68.3296 69.3863 68.7712C69.6269 69.0028 69.8159 69.2827 69.9407 69.5926C70.0655 69.9025 70.1234 70.2354 70.1104 70.5692C70.1195 70.905 70.06 71.2392 69.9355 71.5511C69.8109 71.863 69.6241 72.1462 69.3863 72.3832C68.9093 72.8504 68.2686 73.112 67.6013 73.112C66.9341 73.112 66.2933 72.8504 65.8164 72.3832Z" fill="#FF42A5"/>
<path d="M87.0282 56.7377V68.3369C87.0282 70.8918 86.3636 72.791 85.0344 74.0343C83.7051 75.2777 81.7654 75.8994 79.2154 75.8994C77.923 75.9059 76.6355 75.7394 75.3871 75.4044C74.3026 75.1364 73.2828 74.6531 72.3883 73.9832L73.9834 71.0834C74.6478 71.6057 75.4058 71.9959 76.2166 72.2331C77.0853 72.5154 77.9927 72.6597 78.9059 72.6611C80.3033 72.6611 81.3337 72.3417 81.9973 71.703C82.6576 71.0643 82.9926 70.1062 82.9926 68.8288V68.2347C81.9398 69.3908 80.4734 69.9689 78.5933 69.9689C77.3722 69.9833 76.1666 69.6947 75.0841 69.129C74.0509 68.5874 73.1842 67.775 72.5765 66.7785C71.971 65.7069 71.6527 64.4967 71.6527 63.2655C71.6527 62.0343 71.971 60.8241 72.5765 59.7525C73.1836 58.745 74.0569 57.925 75.1 57.3828C76.1817 56.8146 77.3877 56.5249 78.6093 56.5397C80.6276 56.5397 82.1632 57.204 83.2159 58.5325V56.7473L87.0282 56.7377ZM82.0228 65.7341C82.6735 65.0763 83.0385 64.188 83.0385 63.2623C83.0385 62.3365 82.6735 61.4482 82.0228 60.7904C81.2809 60.1806 80.3508 59.8473 79.3909 59.8473C78.431 59.8473 77.5008 60.1806 76.7589 60.7904C76.4317 61.1134 76.1719 61.4982 75.9946 61.9226C75.8173 62.3469 75.726 62.8023 75.726 63.2623C75.726 63.7223 75.8173 64.1777 75.9946 64.602C76.1719 65.0263 76.4317 65.4112 76.7589 65.7341C77.5008 66.344 78.431 66.6773 79.3909 66.6773C80.3508 66.6773 81.2809 66.344 82.0228 65.7341Z" fill="#FF42A5"/>
<path d="M103.579 56.7377V68.3369C103.579 70.8918 102.916 72.791 101.588 74.0343C100.261 75.2777 98.3217 75.8994 95.7695 75.8994C94.4771 75.9059 93.1896 75.7394 91.9412 75.4044C90.8567 75.1364 89.8369 74.6531 88.9424 73.9832L90.5375 71.0834C91.2021 71.6053 91.96 71.9955 92.7707 72.2331C93.6405 72.5151 94.5489 72.6595 95.4632 72.6611C96.8573 72.6611 97.891 72.3417 98.5514 71.703C99.2117 71.0643 99.5499 70.1062 99.5499 68.8287V68.2347C98.4971 69.3908 97.0307 69.9689 95.1506 69.9689C93.9295 69.9832 92.7239 69.6947 91.6413 69.1289C90.5992 68.5854 89.7262 67.7657 89.1179 66.7593C88.5073 65.6865 88.1862 64.473 88.1862 63.2383C88.1862 62.0036 88.5073 60.7902 89.1179 59.7174C89.7249 58.7099 90.5982 57.8899 91.6413 57.3477C92.7231 56.7795 93.9291 56.4897 95.1506 56.5046C97.1711 56.5046 98.7055 57.1689 99.7541 58.4974V56.7122L103.579 56.7377ZM98.5769 65.7341C99.2276 65.0763 99.5926 64.188 99.5926 63.2623C99.5926 62.3365 99.2276 61.4482 98.5769 60.7904C97.835 60.1806 96.9048 59.8473 95.9449 59.8473C94.985 59.8473 94.0549 60.1806 93.313 60.7904C92.9847 61.1127 92.7238 61.4973 92.5458 61.9218C92.3677 62.3462 92.276 62.8019 92.276 63.2623C92.276 63.7226 92.3677 64.1784 92.5458 64.6028C92.7238 65.0272 92.9847 65.4118 93.313 65.7341C94.0549 66.344 94.985 66.6773 95.9449 66.6773C96.9048 66.6773 97.835 66.344 98.5769 65.7341Z" fill="#FF42A5"/>
<path d="M7.27266 80.0673V86.9975H6.36345V81.5683L4.09839 85.34H3.98673L1.71529 81.5747V87.0038H0.796509V80.0737H1.83333L4.06649 83.7527L6.26136 80.0737L7.27266 80.0673Z" fill="white"/>
<path d="M17.593 86.0745C16.9169 86.7475 16.0022 87.1253 15.0487 87.1253C14.0953 87.1253 13.1806 86.7475 12.5045 86.0745C12.0001 85.5714 11.6565 84.9295 11.5175 84.2304C11.3785 83.5313 11.4504 82.8066 11.7241 82.1485C11.9977 81.4904 12.4607 80.9287 13.0541 80.5348C13.6476 80.1408 14.3447 79.9325 15.0567 79.9364C15.7667 79.9371 16.4607 80.1481 17.0511 80.5428C17.6416 80.9375 18.1023 81.4983 18.3751 82.1544C18.648 82.8106 18.7208 83.533 18.5844 84.2305C18.4481 84.928 18.1087 85.5696 17.6089 86.0745H17.593ZM13.1426 85.4358C13.6508 85.9355 14.3348 86.2155 15.0472 86.2155C15.7595 86.2155 16.4435 85.9355 16.9517 85.4358C17.4418 84.9184 17.7149 84.2326 17.7149 83.5196C17.7149 82.8066 17.4418 82.1208 16.9517 81.6034C16.4435 81.1037 15.7595 80.8237 15.0472 80.8237C14.3348 80.8237 13.6508 81.1037 13.1426 81.6034C12.6525 82.1208 12.3794 82.8066 12.3794 83.5196C12.3794 84.2326 12.6525 84.9184 13.1426 85.4358Z" fill="white"/>
<path d="M26.7777 83.4014C27.0847 83.5465 27.3462 83.7729 27.5338 84.0561C27.7236 84.3473 27.8214 84.689 27.8145 85.0366C27.82 85.2971 27.7709 85.5559 27.6704 85.7963C27.5698 86.0367 27.42 86.2533 27.2307 86.4322C27.0432 86.6166 26.8207 86.7616 26.5764 86.8587C26.332 86.9558 26.0707 87.003 25.8079 86.9975H22.8091V80.0673H25.5782C25.8319 80.062 26.0841 80.1073 26.3201 80.2005C26.5562 80.2937 26.7714 80.433 26.9532 80.6102C27.1354 80.7833 27.2795 80.9926 27.3762 81.2247C27.4729 81.4568 27.52 81.7065 27.5147 81.9579C27.5253 82.2415 27.4631 82.5231 27.3341 82.7758C27.2051 83.0285 27.0135 83.2439 26.7777 83.4014ZM25.591 80.9136H23.7406V83.0342H25.591C25.7283 83.0352 25.8643 83.0073 25.9902 82.9523C26.116 82.8972 26.2289 82.8163 26.3215 82.7148C26.5131 82.512 26.6199 82.2435 26.6199 81.9643C26.6199 81.6852 26.5131 81.4166 26.3215 81.2138C26.2269 81.1162 26.1132 81.0392 25.9875 80.9875C25.8618 80.9359 25.7268 80.9107 25.591 80.9136ZM25.8079 86.1224C25.9532 86.1264 26.0977 86.1001 26.2323 86.0451C26.3669 85.9901 26.4885 85.9077 26.5895 85.803C26.6936 85.697 26.7755 85.5711 26.8303 85.4329C26.8851 85.2947 26.9117 85.1469 26.9085 84.9982C26.911 84.8516 26.8841 84.7059 26.8293 84.5698C26.7745 84.4338 26.6929 84.3101 26.5895 84.2062C26.4891 84.1025 26.3685 84.0207 26.2351 83.9657C26.1017 83.9108 25.9585 83.8839 25.8143 83.8869H23.7406V86.1224H25.8079Z" fill="white"/>
<path d="M31.9778 80.0673H32.8966V86.9975H31.9778V80.0673Z" fill="white"/>
<path d="M38.3773 86.1256H41.3633V86.9975H37.4585V80.0673H38.3773V86.1256Z" fill="white"/>
<path d="M46.2796 86.1256H49.4921V86.9975H45.3448V80.0673H49.4315V80.936H46.2668V83.0661H49.1827V83.9284H46.2668L46.2796 86.1256Z" fill="white"/>
<path d="M62.4795 87.1252C61.9299 87.1271 61.3871 87.0028 60.893 86.7617C60.3989 86.5206 59.9667 86.1692 59.6296 85.7346C59.2925 85.2999 59.0595 84.7937 58.9486 84.2548C58.8377 83.7158 58.8519 83.1586 58.9899 82.626C59.128 82.0934 59.3863 81.5996 59.745 81.1827C60.1036 80.7657 60.5531 80.4367 61.0588 80.221C61.5644 80.0053 62.1128 79.9087 62.6617 79.9385C63.2105 79.9683 63.7452 80.1238 64.2246 80.3931C64.7408 80.6827 65.1695 81.1064 65.4656 81.6194L64.6648 82.0857C64.4644 81.7004 64.1563 81.3819 63.7779 81.1691C63.3834 80.9412 62.935 80.8233 62.4795 80.8274C62.1179 80.814 61.7574 80.8757 61.4209 81.0088C61.0843 81.1418 60.7789 81.3432 60.5239 81.6002C60.0382 82.1237 59.7683 82.8116 59.7683 83.526C59.7683 84.2404 60.0382 84.9283 60.5239 85.4517C60.7789 85.7088 61.0843 85.9102 61.4209 86.0432C61.7574 86.1762 62.1179 86.238 62.4795 86.2246C62.935 86.2287 63.3834 86.1107 63.7779 85.8829C64.1549 85.6727 64.4629 85.3576 64.6648 84.9759L65.4656 85.4326C65.1738 85.9494 64.7455 86.3759 64.2278 86.6653C63.6962 86.9715 63.0928 87.1302 62.4795 87.1252Z" fill="white"/>
<path d="M70.4997 86.1256H73.4858V86.9975H69.5778V80.0673H70.4997V86.1256Z" fill="white"/>
<path d="M82.7661 86.0745C82.177 86.6728 81.3986 87.0478 80.564 87.1356C79.7294 87.2234 78.8902 87.0185 78.1897 86.5559C77.4891 86.0933 76.9707 85.4017 76.7228 84.599C76.475 83.7964 76.5131 82.9325 76.8306 82.1549C77.1481 81.3772 77.7254 80.734 78.4639 80.3349C79.2024 79.9359 80.0564 79.8058 80.8801 79.9669C81.7037 80.128 82.446 80.5702 82.9802 81.2181C83.5144 81.866 83.8075 82.6795 83.8093 83.5196C83.8198 83.9943 83.7325 84.4661 83.5531 84.9056C83.3736 85.3451 83.1057 85.743 82.7661 86.0745ZM78.3158 85.4358C78.824 85.9355 79.5079 86.2154 80.2203 86.2154C80.9327 86.2154 81.6166 85.9355 82.1249 85.4358C82.6149 84.9184 82.8881 84.2326 82.8881 83.5196C82.8881 82.8066 82.6149 82.1208 82.1249 81.6034C81.6166 81.1037 80.9327 80.8237 80.2203 80.8237C79.5079 80.8237 78.824 81.1037 78.3158 81.6034C77.8257 82.1208 77.5525 82.8066 77.5525 83.5196C77.5525 84.2326 77.8257 84.9184 78.3158 85.4358Z" fill="white"/>
<path d="M92.324 86.4577C91.8121 86.9143 91.1428 87.1536 90.4578 87.1252C89.77 87.1528 89.098 86.9137 88.5819 86.4577C88.3391 86.2297 88.1483 85.9519 88.0228 85.6432C87.8973 85.3345 87.8399 85.0023 87.8545 84.6693V80.0673H88.7765V84.631C88.7654 84.8442 88.7983 85.0574 88.8729 85.2573C88.9475 85.4573 89.0624 85.6398 89.2104 85.7935C89.5656 86.0729 90.0044 86.2248 90.4562 86.2248C90.908 86.2248 91.3467 86.0729 91.702 85.7935C91.8504 85.6399 91.9657 85.4576 92.0409 85.2576C92.1161 85.0576 92.1495 84.8444 92.139 84.631V80.0673H93.0482V84.6693C93.0629 85.002 93.0058 85.3339 92.8808 85.6425C92.7559 85.9511 92.566 86.2292 92.324 86.4577Z" fill="white"/>
<path d="M100.226 80.0673C100.667 80.0568 101.105 80.1408 101.51 80.3138C101.916 80.4868 102.28 80.7447 102.577 81.0701C103.177 81.7491 103.508 82.6243 103.508 83.5308C103.508 84.4373 103.177 85.3125 102.577 85.9915C102.28 86.318 101.917 86.5768 101.511 86.7504C101.105 86.9239 100.667 87.0082 100.226 86.9974H97.5272V80.0673H100.226ZM100.226 86.1352C100.552 86.1443 100.876 86.0818 101.175 85.9521C101.475 85.8225 101.742 85.6288 101.958 85.3847C102.394 84.8666 102.633 84.2111 102.633 83.534C102.633 82.8568 102.394 82.2014 101.958 81.6833C101.741 81.4403 101.474 81.2478 101.175 81.1193C100.875 80.9907 100.552 80.9293 100.226 80.9392H98.446V86.1288L100.226 86.1352Z" fill="white"/>
</g>
<defs>
<clipPath id="clip0_1692_13298">
<rect width="104" height="89" fill="white"/>
</clipPath>
</defs>
</svg>
