<svg width="32" height="32" viewBox="0 0 32 32" fill="none" xmlns="http://www.w3.org/2000/svg">
<path d="M28.4262 9.8393C28.2771 9.29051 27.9862 8.79019 27.5825 8.38817C27.1787 7.98616 26.6763 7.69646 26.1252 7.54794C24.1075 7 15.987 7 15.987 7C15.987 7 7.86616 7.01659 5.84849 7.56452C5.29735 7.71306 4.79491 8.00277 4.39119 8.4048C3.98747 8.80684 3.69657 9.30717 3.54745 9.85598C2.93715 13.4258 2.70041 18.8653 3.56421 22.2923C3.71334 22.841 4.00425 23.3414 4.40797 23.7434C4.81168 24.1454 5.31412 24.4351 5.86525 24.5836C7.88292 25.1316 16.0036 25.1316 16.0036 25.1316C16.0036 25.1316 24.1242 25.1316 26.1417 24.5836C26.6929 24.4351 27.1953 24.1454 27.5991 23.7434C28.0028 23.3414 28.2937 22.8411 28.4429 22.2923C29.0866 18.7174 29.2849 13.2812 28.4262 9.8393Z" fill="#FF0000"/>
<path d="M13.4023 19.9513L20.1389 16.066L13.4023 12.1807V19.9513Z" fill="white"/>
</svg>
